<?xml version="1.0" encoding="UTF-8"?>
<svg id="Capa_1" xmlns="http://www.w3.org/2000/svg" version="1.1" viewBox="0 0 1012 987">
  <!-- Generator: Adobe Illustrator 30.5.1, SVG Export Plug-In . SVG Version: 2.1.4 Build 3)  -->
  <defs>
    <style>
      .st0 {
        fill: #0150af;
      }

      .st1 {
        fill: #e5171e;
      }

      .st2 {
        fill: #0151b1;
      }

      .st3, .st4 {
        fill: #fff;
      }

      .st5 {
        fill: #0150ad;
      }

      .st6 {
        font-family: InterFace-Light, InterFace;
        font-size: 34px;
        font-weight: 300;
        letter-spacing: .2em;
      }

      .st7 {
        fill: #e5161d;
      }

      .st4 {
        display: none;
      }

      .st8 {
        fill: #004fad;
      }

      .st9 {
        fill: #0152b1;
      }

      .st10 {
        fill: #0050af;
      }

      .st11 {
        fill: #0051b1;
      }

      .st12 {
        fill: #ff0;
      }
    </style>
  </defs>
  <path class="st4" d="M0,987V0h1012v987H0ZM513.3,719.5l39.9-46.4,67.5-82.3c22.3-27.2,41.5-55.8,60.5-85.4,19.7-30.8,36.7-62.2,51.1-95.8s26-71,31.9-108.9c5-32.1,4.5-63.2-2.9-94.9C733.1,83,620.9-4.2,494.6,2.9c-81.2,4.6-155.2,46.4-200.7,113.5-29,42.8-45.4,92.4-45.8,144.5-.5,61.3,19.7,123.7,46.8,178.4s45,79.5,71.9,116.9c27.3,37.9,56.2,73.8,86.8,108.9l46.6,53.4c3.3,3.8,9.2,5.6,13,1.1ZM458.1,850c-7.9,3.5-12.5.7-14.5-4.8v-32.5s15.4-.2,15.4-.2v-13.7c0,0-15.2-.1-15.2-.1l-.4-16.1c-7.1-1.8-11.9,4.6-15.9,11.6s-4.4,4.9-9.3,4.9v13.5s9.7.3,9.7.3l.3,36.4c0,8.3,6.7,14.8,14.4,16,6.1,1,11.4.2,17.1-1.6,0-5.3-.3-9.4-1.7-13.6ZM800.8,789l-19.2,56-19.6-56.4-14.9.2,26.6,75.1h15.5s26.7-75,26.7-75c-5.7-.5-10.3-.5-15.1,0ZM876,864.3l-.4-13.5h-35.2c0-.1,34.8-50.6,34.8-50.6l-.2-11.7h-43.8s-8.3.3-8.3.3l.3,13,33.6.2-34.3,49.8c-.7,3.5-.6,8-.2,12.5h53.6ZM933.2,850.7h-31.1c0,0-.1-62.5-.1-62.5l-14.2.5v75.6s45.7-.2,45.7-.2l-.3-13.5ZM990.6,848.8l5.1,15.6,15.1-.7-27.4-74.9h-15.2s-27.7,75.1-27.7,75.1h15c0,.1,5.3-15.4,5.3-15.4l29.9.2ZM51.5,843.9c-5.7,8-12.9,9.9-20.7,7.9-6.5-1.7-11.9-7.5-12.4-15.3h48.4c1.6-12.8-1.6-25.1-11.5-32.7s-29.8-8.7-41.6,1c-8.4,6.9-11,16.9-11.3,27.3-.5,19.2,13.4,33.7,32.7,33.7,11.8,0,23-3.9,29.2-14.6l-12.7-7.3ZM91.1,825.5c0-5.7,4.5-10.6,8.2-12.4,5-2.4,10.6-2,15,1.7s4.5,7.3,4.5,11.2v38.2s16-.1,16-.1v-43.5c-.2-12.8-9.6-22.4-22.1-23.3-8.6-.6-15.7,2.2-21.8,9.5l-1-8.1h-14.7c0,.1,0,65.6,0,65.6l15.6-.2.2-38.6ZM163.8,845.7c-6.2-7.6-6.4-18.1-1.5-26s9.4-8.4,15.8-8,10.2,4.2,14.2,9.3l13.1-7.2c-8.6-18.1-34.4-21.9-50.4-9.1-9.6,7.7-14,21-11.7,33.5s16.6,27.9,33.5,27.5,23.1-5.3,28.7-16.5l-13.3-7.3c-3.1,5-7.5,8.5-12.7,9.3s-11.8-.8-15.8-5.7ZM329.6,844c-5.3,7.9-12.5,9.5-19.9,7.9-7.5-1.6-12.6-8.2-12.1-15.5h47.4c1.5-11.8-.7-23.9-10-31.8s-33.6-10.1-45.2,2.6-11.8,32.9-2,46.6,43.5,16.3,54.6-2.6l-12.9-7.2ZM381.8,812c8.8-1.3,15.4,4.8,15.4,13.2v39.1s16.1-.2,16.1-.2l-.3-43c0-4.9-2-11.5-5.1-15.2-10.3-12.2-28.4-11.4-38.7.6l-1.5-7.8h-14.5c0,.1,0,65.6,0,65.6h15.9c0-.1.2-38.5.2-38.5,0-7.2,5.3-12.8,12.4-13.8ZM467.4,864.3h15.6c0,0,.2-36.5.2-36.5,0-5.4,4-10.8,7.5-13,5.2-3.2,9.9-2.3,16-.8l1.5-15c-10.3-4.5-19,.3-25.7,8.5l-.6-8.8h-14.4s-.2,46.4-.2,46.4l.2,19.2ZM520.1,862.8c8.7,4.7,19.2,3.8,26.9-1l5.5-4.7,1,7.1h14.4c0-.1-.1-42.2-.1-42.2,0-6.4-2.4-13.9-7.4-18-13.9-11.3-38.6-8.9-47.8,6.7l11.6,7.5c4.5-6.7,11.8-8.7,19.2-7.1,6.8,1.4,10.3,7.7,8.3,14h-19.1c-5.8,0-12.3,2.4-16.6,6.6-8.8,8.6-7.3,24.8,4.1,31ZM634.4,864.1v-38.9c-.1-6.1,3.2-11.1,9.2-12.8s7.5-.3,9.7,1.1,5.2,5.4,5.2,8.3l.2,42.5h15.9c0,0-.3-43.9-.3-43.9,0-6.9-2.7-13.5-7.3-17.6-10-8.9-28.5-7.3-35.9,5.6-4.4-7.3-10.9-11.1-18.4-11.3s-13.8,2.7-19.5,9.6l-1.1-8-14.5.2v65.3s16,0,16,0l.2-39.9c0-7.6,6.2-12.7,13.6-12.3s10.4,3.7,10.5,9.5l.3,42.7,16.2-.2ZM730.2,843.8c-4,7.3-8.2,7.8-13.9,8.4-9.9.9-18.1-6-18-15.7h48c1.1-10.9-.6-21.6-8-29.4-12.3-13-33.9-13.1-46.7-.7s-10.5,18.9-9.6,29.8c1.5,18,15.5,30.1,33.3,29.7,11.5-.2,22.2-4.3,28.1-14.5l-13.2-7.5ZM272.3,798.7l-15.8.2v37.3c0,6.1-3.8,12.1-9.3,14.2s-8.7,1.3-12.4-.9-5.7-6.4-5.7-10.3v-40.3c-.1,0-16.1.2-16.1.2l.5,45.8c.1,12.4,10.6,20.5,22,20.9,8.7.3,14.8-1.8,21-9.3l1.2,8,14.6-.4v-65.3ZM150.9,911c3.3,0,5.9,0,7.1-1.1l-15.8.2,7.8,1.5-.4,18.9,1.2.6v-20ZM210.9,920.6l8.9.4v-1.7s-8.9-.5-8.9-.5v-7.6c3.9-.1,6.8,0,10.6-1.2h-12.8c0,0-.2,21-.2,21h12.3c0-.1,0-1.8,0-1.8h-9.9s0-8.6,0-8.6ZM244.3,926l4.9,5.8v-12.9c0-3.2,1.6-6.9-1-10.3l-.6,14.5c0,.4-.1,1.6-.5,1.5h-1.6c0-.1-1.2,1.2-1.2,1.2ZM262.5,925.3c-1.6-4.4-1-8.5,2.1-11.8s6.7-2.7,11.7-1.8c-4.6-4.7-10.2-2-13.2,1.5s-3.3,9.3-1,12.9l.4-.8ZM290.3,916.8c.9-2.5,4-5.6,6.2-5.8s5.5.9,8.6,2c-3-5.3-9-4.3-13-1.9s-5.8,8.3-4,13.6,4.5,5.7,7.5,6.2,7.3-.5,9.9-3,3.3-5,3.3-8.3-1.9-5.4-4.1-6.4c2.3,4.7,2.9,9.1.4,12.8s-7.4,4.2-11,2.2-5.6-6.2-3.9-11.4ZM327.7,917.9l-8.1-9.4.2,23.3c4.5-2.7-1-10,2-17.3l5.1,4.9.8-1.5ZM327.1,920.2l9.6,11.7v-22.9c0,0-1.9,1.2-1.9,1.2l-.5,15.5-5.9-6.8-1.2,1.2ZM426,915.1l4.1,2.1c-2.1-3.9-2.7-5.2-6-9v15.7c0,2.5-1.5,5.6,1.2,7.3l.7-16.2ZM440.2,916.9c.3-.6,1.8-1.5,2.5-1.7s.1,1.9.2,2.4l1.2,13.3.6-20.5c0-.6-2.4-1-2.6-.5l-6.9,12.9-4.4-1.7,3.8,5.8,5.5-10ZM458.3,914.1c-4.1,3.8-3.3,10.3,0,13.7s9.2,4.6,13.6,1.6,7-10.4,2.9-15.9-10.4-6.4-14.4-1.4c5.9-2.2,11.2-1.1,13.5,4.1s.3,11.1-5.5,12.7-7.8-1-9.5-3.8-1.2-7.1-.5-11ZM537.7,920.9c5.6.4,6.8.4,9.1-1.5l-9.3-.5v-7.8c4.2,0,8,.4,11.5-1.3l-12.4.3v21s12-.1,12-.1v-1.7s-11.1-.2-11.1-.2l.3-8.1ZM569.8,929.4c1.4-.9,2.2-4.8,1.4-6.3-2.3-4.6-12.8-3.5-10.2-10.9,1.2-2,6.8-.9,9.3-.1-1.3-3.5-7.4-4-10-1s.3,8.3,4.6,9.6,3.4,1.5,4.2,2.4.5,4.5-.6,5.4c-2.4,1.9-7.1.4-10.1-1.3,1.7,4.9,7,5,11.4,2.2ZM649,916.2l.8,15,.9-22.5c-3,1.5-4,3.8-4.4,5.8l2.6,1.7ZM673.8,929c-6.7,1.3-11.2-5.2-10.3-10.3,1-6.1,6.4-8.9,13.1-7.7-4.1-3.2-8.7-1.3-12.1,2.2-4.5,4.6-3.3,12.3,1.4,15.9s12.4,2.4,15.8-3.3,1.2-13.3-5.4-14.9c3,3.4,5.2,6.3,4.7,10.3s-2.8,7-7.2,7.8ZM732.4,914.8c3.4-5.6,9.7-4.1,14.9-1.5-3.5-5.9-10.3-4.9-14.7-1.1s-5.6,11.6.2,15.2c-1.6-3.7-2.7-8.8-.4-12.6ZM766,931c6.5,1.5,12.2-4.6,12.2-10.3s-3.9-10.8-10.3-11.4-10.1,4.4-10.8,9.3c-.8,5.4,2.3,10.8,8.9,12.4ZM824.2,911.3l7.2-.8-15.9-1.1c2.5,1.9,4.4,1.8,7.6,2.2v19c.1,0,1,.5,1,.5v-19.8ZM870.6,927.1c-3.7,4.4-10.5,3-13.2-.7s-2.7-9.1,1.1-13.3c3.2-3.6,8.3-2,13-.3-4.1-6.2-11.5-3.8-15.1.3s-3.2,11.5.8,15.3,10.7,3.6,14.9-.1v-8.5c-.1,0-6.9,1.1-6.9,1.1l5,.8c1.1.2,1.1,4.5.3,5.4ZM884.8,927c3.9,5.4,11.7,5.2,15.8,1.1s4.8-10.4.7-15.4-10.5-4.4-14.7-.8-5.6,9.8-1.8,15.1ZM175.6,921.1c.9,0,2.9-1.2,3.4-1.7l-9.5-.7-.7-7.5,11.1-.2-.5-.9h-11.7s0,21,0,21l12.1-.2v-1.8s-10.9-.1-10.9-.1l.5-7.7,6.1-.2ZM245.3,924.3l-12.7-15.6v19.9s-.9,1.9-.9,1.9c-.2.4,1.8,1,1.8.6v-2c0,0,.7-13.7.7-13.7l2.3.2,7.4,9.9,1.4-1.2ZM355.7,911.3l6-.4-.5-.8-14.6.2.5.9h6.5c0,0,.1,20,.1,20h1.8s0-19.8,0-19.8ZM380.3,922.5l4.6-4.2c1.1-1,.8-4.7,0-5.8s-3.5-2.6-5-2.6l-8.1.2v18.8c0,0,1.7,2.3,1.7,2.3l.7-10,6.2,1.2ZM410.2,925.2c1.3,3.3,1.8,4.4,3.7,6l-9.2-22.9-9.4,22,1.1.7,3.4-6,10.5.2ZM588.4,911.2l7.1-.3-.5-.8-14.6.2.5.9h6.6c0,0-.3,20.1-.3,20.1l1.2-.6v-19.4ZM616,925.2l2.7,5.9h1.6c0-.1-9.6-22.9-9.6-22.9l-8.1,19.3,1.4.8,1.8-3.3,10.3.2ZM632.7,915.4l8,10.9,1.8-2.6c.2-.2-.8-.4-1.1-.3h-1.5c0,.1-8.8-15-8.8-15-2.1,8.7-.7,14.6-.6,22.9l1.8-2.1.4-13.7ZM795.7,915.9l-6.7-7.3.2,20.2c-.5.6-.8,1.1-.6,1.3l1.4.9.7-16.3,4,2.4,1-1.2ZM795.1,918.1l10.1,13.3c1.1-7.3,1-14.2.9-21.3h-1.7c0,0-.5,15.9-.5,15.9l-8.2-9-.6,1.1ZM843.2,910.1h-2v21h2v-21ZM704.2,928.7c1-1,1.9-3.4,1.6-4.6s-2.3-3.1-3.2-3.1c1.3,2.7,2.3,5.5.4,7.2s-4.6,1.7-8.5,1.1c2.4,2.4,6.7,2.6,9.7-.6ZM486.3,927.3c2.8,5.9,9.5,4.5,13.1.6.1-2.5-.2-4.4-1.3-6.1l-1.1,6.8c-3.7,2.4-6.9.9-10.7-1.3ZM263.2,926l-.4,1.2c3.6,4.5,12.5,6.4,15.2,0-5.3,3.6-10.9,3.1-14.8-1.1ZM740.6,968.2h-25.4s-124.8,0-124.8,0h-165.2c-1,6.4-1.2,12.2.2,17.8h316.6c5.9,0,9-4.9,8.8-9.4s-4.4-8.3-10.2-8.3Z"/>
  <path class="st2" d="M513.3,719.5c-3.9,4.5-9.7,2.7-13-1.1l-46.6-53.4c-30.6-35.1-59.5-71-86.8-108.9-27-37.4-51.4-75.6-71.9-116.9s-47.3-117.1-46.8-178.4c.4-52.1,16.8-101.7,45.8-144.5C339.4,49.2,413.5,7.4,494.6,2.9c126.3-7.1,238.5,80.1,266.8,202.8,7.3,31.8,7.9,62.9,2.9,94.9-6,37.9-16.7,73.7-31.9,108.9s-31.5,65-51.1,95.8c-19,29.7-38.2,58.2-60.5,85.4l-67.5,82.3-39.9,46.4ZM511.9,503.9c31.4-16,62.3-31.3,92.9-49,33.7-19.5,61.5-47,81.2-80.5s20.9-44.5,26-68.5c18.2-86.2-19.6-173.4-94.1-219.9s-95.6-37.3-146.3-28.1c-78.8,14.3-142.2,71.8-164.2,148.7-6.7,23.3-9.4,46.5-7.5,71.3,5.7,78.5,51.7,147,121.1,183.3l82.6,43.2c2.3,1.2,6,.8,8.4-.4Z"/>
  <path class="st10" d="M634.4,864.1l-16.2.2-.3-42.7c0-5.8-5.5-9.3-10.5-9.5-7.4-.3-13.6,4.7-13.6,12.3l-.2,39.9h-15.9s0-65.3,0-65.3l14.5-.2,1.1,8c5.7-6.9,11.8-9.7,19.5-9.6s13.9,4,18.4,11.3c7.4-12.9,25.9-14.6,35.9-5.6,4.5,4.1,7.2,10.7,7.3,17.6l.3,43.8h-15.9c0,0-.2-42.4-.2-42.4,0-2.9-3.1-6.9-5.2-8.3s-6.7-1.9-9.7-1.1c-6,1.6-9.4,6.7-9.3,12.8v38.9Z"/>
  <path class="st2" d="M51.5,843.9l12.7,7.3c-6.2,10.6-17.4,14.6-29.2,14.6-19.2,0-33.2-14.5-32.7-33.7s2.9-20.4,11.3-27.3c11.8-9.7,29.3-10.4,41.6-1s13,19.9,11.5,32.5H18.4c.5,8,5.9,13.8,12.4,15.5,7.9,2,15,.1,20.7-7.9ZM51,824.9c-1.6-10.9-9.4-14.5-17.3-14s-14.2,6-14.9,14.2l32.2-.2Z"/>
  <path class="st10" d="M730.2,843.8l13.2,7.5c-5.9,10.2-16.6,14.3-28.1,14.5-17.8.3-31.9-11.7-33.3-29.7s1.4-21.9,9.6-29.8c12.8-12.4,34.4-12.3,46.7.7,7.4,7.8,9,18.5,8,29.3h-48c0,9.9,8.1,16.7,18,15.8,5.8-.5,10-1.1,13.9-8.4ZM730.5,824.9c-1.5-10.9-9.4-14.5-17.4-14-7.5.5-13.9,5.9-14.8,14.2l32.2-.2Z"/>
  <path class="st11" d="M329.6,844l12.9,7.2c-11.2,18.9-42.7,19.2-54.6,2.6s-9.7-33.8,2-46.6,32.3-13.4,45.2-2.6,11.5,19.9,10,31.7h-47.4c-.5,7.4,4.7,14,12.1,15.6,7.4,1.6,14.5,0,19.9-7.9ZM329.6,825c-.9-9.8-8.6-14.4-16.4-14.3s-15.1,5.8-15.6,14.4h32Z"/>
  <path class="st10" d="M520.1,862.8c-11.3-6.2-12.9-22.4-4.1-31s10.7-6.5,16.6-6.5h19.1c2-6.4-1.5-12.7-8.3-14.1-7.4-1.5-14.6.4-19.2,7.1l-11.6-7.5c9.2-15.6,33.9-18,47.8-6.7s7.4,11.6,7.4,18v42.1c.1,0-14.3.1-14.3.1l-1-7.1-5.5,4.7c-7.7,4.7-18.3,5.7-26.9,1ZM551.7,836.3l-17.7.4c-4.7.1-7.9,5.1-7.6,8.9s3.7,6.8,8.2,7.4,10.1-.7,13.8-4.3,4.2-7.7,3.3-12.4Z"/>
  <path class="st11" d="M91.1,825.5l-.2,38.6-15.6.2v-65.5s14.7-.1,14.7-.1l1,8.1c6.1-7.2,13.1-10.1,21.8-9.5,12.5.9,21.9,10.6,22,23.3v43.5c.1,0-15.8.1-15.8.1v-38.2c0-3.8-1.7-8.8-4.5-11.2-4.4-3.7-10-4.1-15-1.7-3.7,1.8-8.2,6.7-8.2,12.4Z"/>
  <path class="st8" d="M990.6,848.8l-29.9-.2-5.3,15.5h-15c0-.1,27.7-75.2,27.7-75.2h15.2s27.4,74.9,27.4,74.9l-15.1.7-5.1-15.6ZM985.8,835.6l-10.2-29-10.2,29.4,20.4-.4Z"/>
  <path class="st9" d="M381.8,812c-7.1,1.1-12.3,6.7-12.4,13.8l-.2,38.3h-15.9c0,.1,0-65.3,0-65.3h14.5c0-.1,1.5,7.7,1.5,7.7,10.3-12.1,28.4-12.8,38.7-.6s5,10.3,5.1,15.2l.3,43-16.1.2v-39.1c0-8.4-6.6-14.5-15.4-13.2Z"/>
  <path class="st11" d="M272.3,798.7v65.3c0,0-14.6.4-14.6.4l-1.2-8c-6.1,7.5-12.3,9.6-21,9.3-11.4-.4-21.9-8.5-22-20.9l-.5-45.8,16-.2v40.3c.1,3.9,3,8.6,5.9,10.3s8.2,2.5,12.4.9,9.2-8.1,9.2-14.2v-37.3s15.8-.2,15.8-.2Z"/>
  <path class="st8" d="M876,864.3h-53.6c-.4-4.5-.5-9,.2-12.5l34.3-49.8-33.6-.2-.3-13,8.3-.3h43.8s.2,11.7.2,11.7l-34.8,50.4h35.2c0,.1.4,13.7.4,13.7Z"/>
  <path class="st11" d="M163.8,845.7c4,4.9,10,6.7,15.8,5.7s9.5-4.3,12.7-9.3l13.3,7.3c-5.6,11.2-16.7,16.2-28.7,16.5s-30.5-10.7-33.5-27.5,2.1-25.8,11.7-33.5c16-12.8,41.8-9.1,50.4,9.1l-13.1,7.2c-4-5.1-8.4-9-14.2-9.3s-12.2,2.3-15.8,8-4.8,18.4,1.5,26Z"/>
  <path class="st10" d="M800.8,789c4.8-.6,9.3-.6,15.1,0l-26.7,75h-15.5s-26.6-75.1-26.6-75.1l14.9-.2,19.6,56.4,19.2-56Z"/>
  <path class="st9" d="M458.1,850c1.3,4.2,1.6,8.3,1.7,13.6-5.7,1.7-11.1,2.5-17.1,1.6-7.7-1.2-14.4-7.7-14.4-16l-.3-36.4-9.8-.3v-13.5c4.9,0,7.3-1.4,9.3-4.9,4-7,8.8-13.4,15.9-11.6l.4,16.1h15.1c0,.1,0,13.8,0,13.8l-15.4.2v32.5c1.9,5.5,6.5,8.3,14.4,4.8Z"/>
  <polygon class="st8" points="933.2 850.7 933.6 864.2 887.8 864.4 887.8 788.8 902 788.3 902.1 850.7 933.2 850.7"/>
  <path class="st10" d="M467.4,864.3l-.2-19.2.2-46.4h14.4s.6,8.8.6,8.8c6.8-8.3,15.5-13,25.7-8.5l-1.5,15c-6.1-1.5-10.8-2.4-16,.8s-7.5,7.6-7.5,13l-.2,36.4h-15.6Z"/>
  <path class="st1" d="M602.1,364.3c-6.8,20.4-23.1,38.4-38.8,53.3-18.3,17.3-37.5,32.7-57.5,48-21.1-15.8-40.9-31.6-59.6-49.6-22-21.2-45.2-48.3-39-79.4,3.8-18.7,16.9-33.4,33.4-38.9,25.9-8.6,51.1,3.7,65.2,29.7,13.5-27.3,44.3-40.7,70.9-27,23.4,12.1,33.6,39.1,25.4,63.9Z"/>
  <path class="st5" d="M570.3,443.4c30.2-26.3,58.1-59.5,55.5-101.4-1.5-21.5-12.1-40.7-29.6-52.9-12-8-25.3-10.9-40.5-8.6,11-18.3,26.6-32.8,46-41.5s53.9-6.3,72.5,14.1c13.5,14.8,18.9,34.6,16.3,54.6-6.5,49.2-40.4,88.4-80.9,115-12.5,7.7-24.2,15.3-39.2,20.7Z"/>
  <path class="st10" d="M387.8,355.7c3.1,33.9,28.2,62.2,54.4,86.3-26.3-10.4-49.9-26.8-70.3-46.5-26.6-25.7-48.6-64.6-47-101.2.9-21.1,11.9-40.1,27.9-50.6,38.4-25.4,83.3-2.2,107.6,36.8-19-2.8-37,2.1-50.9,15.3-16.3,15.5-23.8,37.4-21.7,60Z"/>
  <circle class="st0" cx="600.3" cy="180.9" r="43.3"/>
  <circle class="st0" cx="416.2" cy="180.9" r="43.3"/>
  <rect class="st12" x="231.7" y="952.1" width="184.5" height="16" rx="8" ry="8"/>
  <rect class="st7" x="569.3" y="952.1" width="184.5" height="16" rx="8" ry="8"/>
  <rect class="st10" x="400.6" y="952.1" width="184.5" height="16" rx="8" ry="8"/>
  <text class="st6" transform="translate(134.8 917.6)"><tspan x="0" y="0">TE ENCONTRAMOS, ESTAMOS CONTIGO</tspan></text>
  <polygon class="st3" points="447.7 961 451.9 957.9 446.7 957.9 445 952.9 443.4 957.9 438.1 957.9 442.4 961 440.8 966 445 962.9 449.3 966 447.7 961"/>
  <polygon class="st3" points="465.5 961 469.7 957.9 464.5 957.9 462.8 952.9 461.2 957.9 455.9 957.9 460.2 961 458.5 966 462.8 962.9 467.1 966 465.5 961"/>
  <polygon class="st3" points="483 961 487.3 957.9 482 957.9 480.3 952.9 478.7 957.9 473.4 957.9 477.7 961 476.1 966 480.3 962.9 484.6 966 483 961"/>
  <polygon class="st3" points="500.7 961 504.9 957.9 499.7 957.9 498 952.9 496.4 957.9 491.1 957.9 495.4 961 493.8 966 498 962.9 502.3 966 500.7 961"/>
  <polygon class="st3" points="516.5 961 520.8 957.9 515.5 957.9 513.9 952.9 512.2 957.9 507 957.9 511.2 961 509.6 966 513.9 962.9 518.1 966 516.5 961"/>
  <polygon class="st3" points="531.9 961 536.1 957.9 530.8 957.9 529.2 952.9 527.6 957.9 522.3 957.9 526.6 961 524.9 966 529.2 962.9 533.5 966 531.9 961"/>
  <polygon class="st3" points="548.3 961 552.6 957.9 547.3 957.9 545.7 952.9 544 957.9 538.7 957.9 543 961 541.4 966 545.7 962.9 549.9 966 548.3 961"/>
</svg>